<svg width="206" height="206" viewBox="0 0 206 206" fill="none" xmlns="http://www.w3.org/2000/svg">
    <path fill-rule="evenodd" clip-rule="evenodd" d="M72.9583 34.3335H55.7916C52.377 34.3335 49.1022 35.69 46.6876 38.1045C44.2731 40.519 42.9166 43.7938 42.9166 47.2085V150.208C42.9166 153.623 44.2731 156.898 46.6876 159.312C49.1022 161.727 52.377 163.083 55.7916 163.083H128.75C132.165 163.083 135.439 161.727 137.854 159.312C140.268 156.898 141.625 153.623 141.625 150.208V47.2085C141.625 43.7938 140.268 40.519 137.854 38.1045C135.439 35.69 132.165 34.3335 128.75 34.3335H124.458V42.9168H128.75C129.888 42.9168 130.98 43.369 131.785 44.1738C132.589 44.9787 133.042 46.0703 133.042 47.2085V150.208C133.042 151.347 132.589 152.438 131.785 153.243C130.98 154.048 129.888 154.5 128.75 154.5H55.7916C54.6534 154.5 53.5618 154.048 52.757 153.243C51.9521 152.438 51.5 151.347 51.5 150.208V47.2085C51.5 46.0703 51.9521 44.9787 52.757 44.1738C53.5618 43.369 54.6534 42.9168 55.7916 42.9168H72.9583V34.3335ZM81.5416 42.9168H115.875V34.3335H81.5416V42.9168Z" fill="#009AAD"/>
    <path fill-rule="evenodd" clip-rule="evenodd" d="M60.0834 81.5417C60.0834 80.4034 60.5355 79.3118 61.3404 78.507C62.1452 77.7022 63.2368 77.25 64.375 77.25H120.167C121.305 77.25 122.397 77.7022 123.201 78.507C124.006 79.3118 124.458 80.4034 124.458 81.5417C124.458 82.6799 124.006 83.7715 123.201 84.5763C122.397 85.3812 121.305 85.8333 120.167 85.8333H64.375C63.2368 85.8333 62.1452 85.3812 61.3404 84.5763C60.5355 83.7715 60.0834 82.6799 60.0834 81.5417Z" fill="#009AAD"/>
    <path fill-rule="evenodd" clip-rule="evenodd" d="M60.0834 103C60.0834 101.862 60.5355 100.77 61.3404 99.9655C62.1452 99.1606 63.2368 98.7085 64.375 98.7085H94.4167C95.5549 98.7085 96.6465 99.1606 97.4514 99.9655C98.2562 100.77 98.7084 101.862 98.7084 103C98.7084 104.138 98.2562 105.23 97.4514 106.035C96.6465 106.84 95.5549 107.292 94.4167 107.292H64.375C63.2368 107.292 62.1452 106.84 61.3404 106.035C60.5355 105.23 60.0834 104.138 60.0834 103Z" fill="#009AAD"/>
    <path fill-rule="evenodd" clip-rule="evenodd" d="M60.0834 124.458C60.0834 123.32 60.5355 122.228 61.3404 121.424C62.1452 120.619 63.2368 120.167 64.375 120.167H111.583C112.722 120.167 113.813 120.619 114.618 121.424C115.423 122.228 115.875 123.32 115.875 124.458C115.875 125.596 115.423 126.688 114.618 127.493C113.813 128.298 112.722 128.75 111.583 128.75H64.375C63.2368 128.75 62.1452 128.298 61.3404 127.493C60.5355 126.688 60.0834 125.596 60.0834 124.458Z" fill="#009AAD"/>
    <path fill-rule="evenodd" clip-rule="evenodd" d="M34.3333 42.9165V150.208C34.3333 155.899 36.5941 161.357 40.6183 165.382C44.6426 169.406 50.1006 171.667 55.7917 171.667H128.75V180.25H55.7917C47.8241 180.25 40.1829 177.085 34.549 171.451C28.9151 165.817 25.75 158.176 25.75 150.208V42.9165H34.3333Z" fill="#009AAD"/>
    <path fill-rule="evenodd" clip-rule="evenodd" d="M154.5 55.7915C154.5 52.3768 155.856 49.102 158.271 46.6875C160.686 44.273 163.96 42.9165 167.375 42.9165C170.79 42.9165 174.064 44.273 176.479 46.6875C178.894 49.102 180.25 52.3768 180.25 55.7915V142.925L167.375 162.238L154.5 142.925V55.7915ZM167.375 51.4998C166.237 51.4998 165.145 51.952 164.34 52.7568C163.535 53.5617 163.083 54.6533 163.083 55.7915V140.324L167.375 146.762L171.667 140.324V55.7915C171.667 54.6533 171.215 53.5617 170.41 52.7568C169.605 51.952 168.513 51.4998 167.375 51.4998Z" fill="#009AAD"/>
    <path fill-rule="evenodd" clip-rule="evenodd" d="M175.958 72.9583H158.792V64.375H175.958V72.9583Z" fill="#009AAD"/>
    <path fill-rule="evenodd" clip-rule="evenodd" d="M111.583 25.75C112.722 25.75 113.813 26.2022 114.618 27.007C115.423 27.8118 115.875 28.9034 115.875 30.0417V47.2083C115.875 48.3466 115.423 49.4382 114.618 50.243C113.813 51.0478 112.722 51.5 111.583 51.5C110.445 51.5 109.353 51.0478 108.549 50.243C107.744 49.4382 107.292 48.3466 107.292 47.2083V30.0417C107.292 28.9034 107.744 27.8118 108.549 27.007C109.353 26.2022 110.445 25.75 111.583 25.75Z" fill="#009AAD"/>
    <path fill-rule="evenodd" clip-rule="evenodd" d="M68.6667 25.75C69.8049 25.75 70.8965 26.2022 71.7013 27.007C72.5062 27.8118 72.9583 28.9034 72.9583 30.0417V47.2083C72.9583 48.3466 72.5062 49.4382 71.7013 50.243C70.8965 51.0478 69.8049 51.5 68.6667 51.5C67.5284 51.5 66.4368 51.0478 65.632 50.243C64.8272 49.4382 64.375 48.3466 64.375 47.2083V30.0417C64.375 28.9034 64.8272 27.8118 65.632 27.007C66.4368 26.2022 67.5284 25.75 68.6667 25.75Z" fill="#009AAD"/>
</svg>
