<svg width="26" height="26" viewBox="0 0 26 26" fill="none" xmlns="http://www.w3.org/2000/svg">
    <g clip-path="url(#clip0_2331_117)">
        <path d="M5.07813 20.1094C4.71656 20.1094 4.36311 20.0022 4.06247 19.8013C3.76184 19.6004 3.52753 19.3149 3.38916 18.9808C3.25079 18.6468 3.21459 18.2792 3.28513 17.9246C3.35567 17.57 3.52978 17.2442 3.78545 16.9886C4.04111 16.7329 4.36686 16.5588 4.72148 16.4883C5.0761 16.4177 5.44367 16.4539 5.77772 16.5923C6.11177 16.7306 6.39728 16.965 6.59816 17.2656C6.79903 17.5662 6.90625 17.9197 6.90625 18.2812C6.90625 18.7661 6.71365 19.2311 6.37081 19.5739C6.02797 19.9168 5.56298 20.1094 5.07813 20.1094ZM5.07813 14.0156C4.71656 14.0156 4.36311 13.9084 4.06247 13.7075C3.76184 13.5067 3.52753 13.2211 3.38916 12.8871C3.25079 12.553 3.21459 12.1855 3.28513 11.8308C3.35567 11.4762 3.52978 11.1505 3.78545 10.8948C4.04111 10.6392 4.36686 10.465 4.72148 10.3945C5.0761 10.324 5.44367 10.3602 5.77772 10.4985C6.11177 10.6369 6.39728 10.8712 6.59816 11.1718C6.79903 11.4725 6.90625 11.8259 6.90625 12.1875C6.90625 12.6723 6.71365 13.1373 6.37081 13.4802C6.02797 13.823 5.56298 14.0156 5.07813 14.0156ZM5.07813 7.92188C4.71656 7.92188 4.36311 7.81466 4.06247 7.61378C3.76184 7.4129 3.52753 7.12739 3.38916 6.79334C3.25079 6.4593 3.21459 6.09172 3.28513 5.7371C3.35567 5.38248 3.52978 5.05674 3.78545 4.80107C4.04111 4.5454 4.36686 4.37129 4.72148 4.30075C5.0761 4.23021 5.44367 4.26642 5.77772 4.40478C6.11177 4.54315 6.39728 4.77746 6.59816 5.0781C6.79903 5.37873 6.90625 5.73218 6.90625 6.09375C6.90625 6.5786 6.71365 7.04359 6.37081 7.38643C6.02797 7.72927 5.56298 7.92188 5.07813 7.92188ZM22.1406 7.3125H9.95313C9.79151 7.3125 9.63651 7.2483 9.52223 7.13402C9.40795 7.01974 9.34375 6.86474 9.34375 6.70312V5.48438C9.34375 5.32276 9.40795 5.16776 9.52223 5.05348C9.63651 4.9392 9.79151 4.875 9.95313 4.875H22.1406C22.3022 4.875 22.4572 4.9392 22.5715 5.05348C22.6858 5.16776 22.75 5.32276 22.75 5.48438V6.70312C22.75 6.86474 22.6858 7.01974 22.5715 7.13402C22.4572 7.2483 22.3022 7.3125 22.1406 7.3125ZM22.1406 19.5H9.95313C9.79151 19.5 9.63651 19.4358 9.52223 19.3215C9.40795 19.2072 9.34375 19.0522 9.34375 18.8906V17.6719C9.34375 17.5103 9.40795 17.3553 9.52223 17.241C9.63651 17.1267 9.79151 17.0625 9.95313 17.0625H22.1406C22.3022 17.0625 22.4572 17.1267 22.5715 17.241C22.6858 17.3553 22.75 17.5103 22.75 17.6719V18.8906C22.75 19.0522 22.6858 19.2072 22.5715 19.3215C22.4572 19.4358 22.3022 19.5 22.1406 19.5ZM22.1406 13.4062H9.95313C9.79151 13.4062 9.63651 13.342 9.52223 13.2278C9.40795 13.1135 9.34375 12.9585 9.34375 12.7969V11.5781C9.34375 11.4165 9.40795 11.2615 9.52223 11.1472C9.63651 11.033 9.79151 10.9688 9.95313 10.9688H22.1406C22.3022 10.9688 22.4572 11.033 22.5715 11.1472C22.6858 11.2615 22.75 11.4165 22.75 11.5781V12.7969C22.75 12.9585 22.6858 13.1135 22.5715 13.2278C22.4572 13.342 22.3022 13.4062 22.1406 13.4062Z"
              fill="#009AAD"/>
    </g>
    <defs>
        <clipPath id="clip0_2331_117">
            <rect width="19.5" height="19.5" fill="white" transform="matrix(1 0 0 -1 3.25 21.9375)"/>
        </clipPath>
    </defs>
</svg>
